<?xml version="1.0" encoding="UTF-8" standalone="no"?>
<svg xmlns="http://www.w3.org/2000/svg" xmlns:xlink="http://www.w3.org/1999/xlink" width="301.8046" height="349.02859" version="1.0">
  <defs>
    <linearGradient id="a">
      <stop offset="0"/>
      <stop offset="1" stop-color="#fff"/>
    </linearGradient>
    <linearGradient id="b">
      <stop offset="0" stop-color="#6b6b6b"/>
      <stop offset="1" stop-color="#d5d5d5"/>
    </linearGradient>
    <linearGradient id="d">
      <stop offset="0" stop-color="#fff"/>
      <stop offset="1" stop-color="#3f3f3f"/>
    </linearGradient>
    <linearGradient id="c">
      <stop offset="0"/>
      <stop offset="1" stop-opacity="0"/>
    </linearGradient>
    <linearGradient xlink:href="#a" id="e" x1="230.125" x2="201.875" y1="206.5" y2="128.5" gradientUnits="userSpaceOnUse"/>
    <linearGradient xlink:href="#b" id="g" x1="210.25703" x2="192.0867" y1="170.84894" y2="125.59411" gradientUnits="userSpaceOnUse"/>
    <linearGradient xlink:href="#c" id="i" x1="162.625" x2="124.875" y1="190" y2="141" gradientUnits="userSpaceOnUse"/>
    <radialGradient xlink:href="#d" id="h" cx="126.96671" cy="60.548233" r="38.593609" fx="126.96671" fy="60.548233" gradientTransform="matrix(.82888 .0112 -.03007 2.22405 28.98796 -87.07468)" gradientUnits="userSpaceOnUse"/>
  </defs>
  <g transform="translate(-72.60867 -16.88904) scale(1.03358)">
    <path fill-rule="evenodd" d="M82 301s16 52 21 53 103-23 105-28-2-16-2-16l18-6s6 10 14 8 13-24 13-24l5-1.25s7 14.5 14 11S283.25 271 283.25 271l10.25-4.25S304 274 310.75 265s7.25-25.25 7.25-25.25 8.75-12.75 13.5-23.25S340 197 340 197l22.25-14.25-12.5-10.5L355 84l-122-8-38.5 4s8.5-38.5 5-43.5S177 26 160 26s-35.5 3-37.5 6.5 8 102.5 8 102.5-22 13-23.5 32.5 12.25 42.25 12.25 42.25l-4.5 29L82 301z" opacity=".3"/>
    <path d="M154 164h152v77H154z"/>
    <path fill="url(#e)" fill-rule="evenodd" stroke="#000" stroke-width="3.75" d="m170 225 113-50-33-37-108 57"/>
    <path fill="#d5d5d5" fill-rule="evenodd" stroke="#000" stroke-linejoin="round" stroke-width="3.75" d="m158 75 65-7 121 9-68 58"/>
    <path fill="#6b6b6b" fill-rule="evenodd" stroke="#000" stroke-width="3.75" d="m337.28993 171.9096 6.36397-94.045206-66.22897 6.443651-113.20458-8.736544-14.84403 70.528699 65.9377-35.7089 66.11448 82.7315"/>
    <use xlink:href="#f" width="400" height="360" transform="matrix(-1 0 0 1 447 0)"/>
    <path fill="#1f1f1f" fill-rule="evenodd" stroke="#000" stroke-width="7.5" d="M219.5 286c-31.33219 23.83359-50.04091-1.39566-5.5-13.5-39.54713 12.45411-66.04557-18.31761 2.5-26-43.76265 9.1729-77.64525-24.08797.5-28"/>
    <path fill="#6b6b6b" fill-rule="evenodd" stroke="#000" stroke-width="3.75" d="M113.5 192c-6.61775 19.82837-7.88117 33.45698-5.55025 42.92373L178 236.5c.39714-17.87055-6.06282-31.74113-11-46.5"/>
    <path fill="#d5d5d5" fill-rule="evenodd" stroke="#000" stroke-width="3.75" d="M106.06602 230.59946c-11.313709 23.098-22.627419 44.06912-33.941128 61.51829 8.024235 16.6973 14.765331 50.23743 24.748738 50.20458 11.27054-.03708 91.03229-17.4481 99.70205-26.16295 6.34904-6.38207-18.00212-90.12701-16.97056-89.09545-29.12762 13.13665-49.93615 6.97288-73.5391 3.53553z"/>
    <path fill="none" stroke="#000" stroke-linecap="round" stroke-width="3.75" d="m172.38095 244.7619 6.66667 63.80953m-17.66667-63.80953-1.95238 65.76191m-10.38095-64.80952-11.66667 70.09523m.2381-70.09523-19.66667 81.33333m10.61905-81.33333-26.61905 77.47619m17.95238-77.90477-26.142855 62.52381m15.619045-62.66666-21.904759 43.80952"/>
    <path fill="#a2a2a2" fill-rule="evenodd" stroke="#000" stroke-width="1.00000012" d="M115.75808 195.46589c-10.34676 24.64492 8.9772 23.25019 25.2293 23.96961 16.25211.71942 33.60092 1.27003 27.88196-20.01363"/>
    <g stroke="#000" stroke-linejoin="round" stroke-width="3.75">
      <path fill="url(#g)" fill-rule="evenodd" d="m166.8772 202.31519 88.38834-40.30509c-.2383-26.05322-8.26-47.88862-38.18376-50.91169l-79.90306 14.14214"/>
      <path fill="none" d="M185.96909 116.75526c32.00434 13.56982 37.97484 41.61546 35.35533 60.45764"/>
    </g>
    <path fill="url(#h)" fill-rule="evenodd" stroke="#000" stroke-width="3.75" d="M124.80434 144.33243s-16.26346-116.319064-9.19239-120.915258c7.07107-4.596194 62.57895-10.253048 70.35712 3.181981 7.77817 13.435029-21.92031 115.611957-21.92031 115.611957"/>
    <path fill="#d5d5d5" stroke="#000" stroke-linecap="round" stroke-width="3.75" d="M190.211728 166.959842c0 25.38408-20.57786 45.96194-45.96194 45.96194-25.38408 0-45.961945-20.57786-45.961945-45.96194 0-25.38408 20.577865-45.96194 45.961945-45.96194s45.96194 20.57786 45.96194 45.96194h0z"/>
    <path d="M159.9999515 171.14283982c0 9.73072527-7.8883204 17.61904567-17.61904566 17.61904567-9.73072526 0-17.61904566-7.8883204-17.61904566-17.61904567 0-9.73072526 7.8883204-17.61904566 17.61904566-17.61904566 9.73072526 0 17.61904566 7.8883204 17.61904566 17.61904566z"/>
    <path fill="#dbdbdb" d="M151.42857 166.66667c0 4.99686-4.05076 9.04762-9.04762 9.04762s-9.04762-4.05076-9.04762-9.04762 4.05076-9.04762 9.04762-9.04762 9.04762 4.05076 9.04762 9.04762z"/>
    <path fill="none" stroke="url(#i)" stroke-linecap="round" stroke-width="3.75" d="m159.5 186.5 6.5 8.5m-1-18.5 10.5 8m-9-19 13.5 4M164.5 158l11.5-6.5M150.5 191l5 11m-13-8.99999.5 12.5M134 192.5l-4 11.5m-2.5-15.5-7 9m37-46.5 11-10.5m-18 7c.5-2.5 6-14 6-14m-13 14 1-16M136 150l-5-14m-2 17.5-9-10m3.5 16.5-11.5-5m10.5 13.5-12-.5m12 7.5-12 2m13 5-8 5"/>
    <path fill="#6b6b6b" fill-rule="evenodd" d="M141.5981 18.644201c-25.55394 1.06066-26.51651 8.838834-26.51651 8.838834 18.41112 6.062291 42.15669 6.460626 69.47325-.530329-3.93158-4.494776-10.14742-7.954952-22.45065-7.954952"/>
    <path fill-rule="evenodd" d="M227.5 291.5c5-15 31.5-12.5 34-20.5s25-14.5 29-18 50-63.5 37.5-77.5-41 50-41 50l-66 32"/>
    <g id="j" stroke="#000" stroke-width="3.75">
      <path fill="#e4e4e4" stroke-linecap="round" d="M240.4163 254.99464c.00531 26.37203-6.88191 47.75952-15.37957 47.75952s-15.38488-21.38749-15.37957-47.75952c-.00531-26.37203 6.88191-47.75952 15.37957-47.75952s15.38488 21.38749 15.37957 47.75952h0z"/>
      <path fill="none" fill-opacity=".75" fill-rule="evenodd" d="M224.85996 206.91138v95.10586m-15.2028-48.43681 30.75915.35355m-5.30331-33.94112-20.50609 68.94291m-.35356-67.88225 21.92032 65.76093m-4.94975-75.30687L218.496 298.12816m-1.06066-85.55992 14.49568 84.1457m7.42463-57.98275-28.99138 31.1127m.35355-30.75915 28.99138 29.69849" opacity=".8"/>
    </g>
    <path fill="#6b6b6b" fill-rule="evenodd" stroke="#000" stroke-linejoin="round" stroke-width="3.75" d="m277.5 196.5 14 11L350 173l-14.5-11.5-58 35z"/>
    <use xlink:href="#j" width="400" height="360" transform="translate(32.5 -16.5)"/>
    <use xlink:href="#j" width="400" height="360" transform="matrix(1 0 0 .54356 66 93.80826)"/>
    <path fill="none" stroke="#000" stroke-linecap="round" stroke-width="7.5" d="m224 253 34.5-15.5 33-6"/>
    <path fill="#d5d5d5" fill-rule="evenodd" stroke="#000" stroke-width="3.75" d="M287 186.5V164l40.5-16v16.5l-40.5 22z"/>
    <path fill-rule="evenodd" stroke="#fff" stroke-linejoin="round" stroke-width="3.75" d="M285.5 156V89H333v50.5L285.5 156z"/>
    <path fill="none" stroke="#fff" stroke-width="3.75" d="M316.5 90v54m0-25H333"/>
    <path id="f" fill="#000" fill-opacity="1" fill-rule="evenodd" stroke="#fff" stroke-dasharray="none" stroke-linecap="butt" stroke-linejoin="round" stroke-miterlimit="4" stroke-opacity="1" stroke-width="3.75" d="M270.25 144.5v-55h-41.5v11l41.5 44z"/>
    <path fill="none" stroke="#000" stroke-width="3.75000119" d="M277.5 83.30019v114.89978"/>
  </g>
</svg>